<svg width="565" height="565" viewBox="0 0 565 565" fill="none" xmlns="http://www.w3.org/2000/svg">
<rect width="564.3" height="564.296" rx="282.148" fill="#3752FF"/>
<rect width="564.3" height="564.296" rx="282.148" fill="url(#paint0_radial_131_2)"/>
<rect width="564.3" height="564.296" rx="282.148" fill="url(#paint1_radial_131_2)"/>
<rect width="564.3" height="564.296" rx="282.148" fill="url(#paint2_radial_131_2)"/>
<rect width="564.3" height="564.296" rx="282.148" fill="url(#paint3_radial_131_2)"/>
<path d="M289.965 148.672C289.965 172.897 289.965 197.125 289.967 221.35C289.967 222.565 290.06 223.782 290.009 224.993C289.849 228.811 292.431 232.808 296.998 234.079C305.251 236.375 312.219 240.819 318.392 246.62C326.874 254.587 332.571 264.263 335.384 275.525C337.022 282.087 337.5 288.817 336.948 295.607C336.175 305.101 333.439 313.979 328.929 322.339C325.736 328.259 321.724 333.57 317.016 338.361C310.117 345.382 304.302 353.203 299.689 361.908C294.519 371.665 291.007 381.966 290.384 393.043C289.971 400.377 290.017 407.74 289.997 415.09C289.949 432.095 289.985 449.103 289.985 466.108C289.985 475.083 289.971 484.059 289.983 493.034C289.985 494.729 290.296 495.075 292.006 495.063C296.724 495.03 301.455 495.12 306.159 494.814C314.703 494.259 323.141 492.892 331.39 490.544C346.346 486.288 359.942 479.392 371.993 469.507C379.234 463.569 385.539 456.774 390.931 449.115C393.068 446.08 393.11 446.057 396.736 445.464C402.474 444.525 408.018 442.891 413.392 440.735C417.885 438.933 422.296 436.918 426.693 434.887C427.634 434.454 428.328 433.513 429.191 432.881C430.033 432.265 430.76 431.399 432.016 431.553C432.326 431.591 432.848 431.253 433.003 430.951C433.885 429.242 435.589 428.473 436.963 427.323C439.075 425.556 441.105 423.689 443.219 421.921C443.972 421.292 444.864 420.83 445.693 420.291C446.288 419.907 447.033 419.706 446.77 418.643C446.687 418.305 447.268 417.736 447.634 417.362C452.977 411.901 457.044 405.562 460.322 398.708C464.285 390.425 466.707 381.725 467.547 372.537C468.192 365.469 467.561 358.518 466.347 351.6C466.026 349.772 466.442 348.541 467.588 347.221C474.044 339.776 479.215 331.505 483.037 322.426C485.743 316.004 487.76 309.363 488.628 302.416C488.796 301.082 488.879 299.728 488.887 298.383C488.915 292.985 488.759 287.582 488.935 282.188C489.146 275.739 487.827 269.576 485.904 263.51C480.601 246.778 470.908 232.984 457.542 221.745C455.357 219.909 454.325 218.224 454.638 215.13C455.262 208.967 455.268 202.725 454.438 196.548C453.491 189.492 451.693 182.648 448.591 176.214C447.013 172.94 445.246 169.751 443.468 166.578C441.289 162.689 438.377 159.338 435.423 156.03C432.01 152.203 428.522 148.472 424.477 145.269C417.074 139.405 409.001 134.738 400.173 131.418C398.15 130.657 396.841 129.575 395.989 127.484C392.412 118.697 387.062 111.023 380.568 104.157C370.617 93.6393 358.836 85.6863 345.759 79.592C338.168 76.0549 330.273 73.3519 322.109 71.5338C314.139 69.7601 306.062 68.7498 297.862 69.0535C295.976 69.1224 294.086 69.0211 292.198 69.0495C290.296 69.0778 289.971 69.4139 289.971 71.3293C289.969 80.2379 289.983 89.1445 289.983 98.0531C289.983 110.266 289.977 122.481 289.975 134.694C289.975 139.351 289.975 144.007 289.975 148.662H289.965V148.672ZM374.785 124.791C374.696 124.983 374.605 125.178 374.516 125.37C373.666 125.37 372.816 125.409 371.971 125.362C369.954 125.255 367.936 124.981 365.921 125.008C362.892 125.048 359.851 125.16 356.841 125.477C352.962 125.888 349.057 126.299 345.259 127.14C340.871 128.112 336.569 129.492 332.264 130.806C330.147 131.452 328.069 132.234 326.259 133.613C321.813 137 321.275 142.961 325.291 146.846C327.501 148.984 330.18 150.193 333.393 149.14C335.436 148.47 337.455 147.704 339.529 147.139C343.807 145.973 348.07 144.671 352.42 143.872C358.198 142.809 364.084 142.736 369.958 142.987C376.584 143.27 383.054 144.518 389.387 146.421C395.411 148.233 401.078 150.889 406.434 154.2C417.669 161.144 426.333 170.423 432.026 182.407C436.637 192.116 437.926 202.363 437.139 212.982C436.858 216.764 436.36 220.488 435.251 224.122C434.513 226.539 434.586 226.703 436.657 228.092C443.747 232.85 450.238 238.297 455.711 244.885C464.083 254.964 469.55 266.367 471.343 279.438C472.35 286.784 472.229 294.099 470.932 301.398C469.524 309.325 466.586 316.686 462.655 323.667C461.445 325.818 460.071 327.875 458.643 330.181C458.21 329.612 457.942 329.324 457.748 328.996C454.683 323.813 451.191 318.94 447.108 314.512C444.552 311.74 442.064 308.879 438.731 306.956C437.341 306.154 435.802 305.759 434.28 305.935C430.768 306.342 428.073 308.098 426.648 311.45C425.244 314.757 425.837 317.806 428.135 320.499C429.139 321.675 430.296 322.722 431.405 323.805C438.31 330.551 443.618 338.346 446.853 347.484C450.309 357.247 451.055 367.218 449.014 377.382C447.782 383.519 445.519 389.259 442.43 394.699C438.515 401.589 433.449 407.499 427.334 412.492C420.437 418.127 412.685 422.278 404.315 425.282C403.975 425.404 403.585 425.385 403.241 425.43C403.182 425.209 403.14 425.138 403.152 425.082C403.243 424.691 403.326 424.298 403.445 423.918C406.013 415.628 407.51 407.163 407.682 398.469C407.73 395.969 407.273 393.653 405.861 391.553C404.182 389.057 400.273 387.224 397.62 387.83C392.995 388.888 389.962 392.822 389.921 396.815C389.903 398.633 389.709 400.449 389.64 402.27C389.308 410.901 386.953 419.042 383.36 426.807C376.11 442.464 364.715 454.401 350.048 463.308C337.937 470.661 324.684 474.672 310.746 476.632C309.837 476.76 308.897 476.648 307.883 476.648C307.798 476.166 307.675 475.782 307.673 475.399C307.658 470.408 307.662 465.415 307.662 460.425C307.66 440.99 307.6 421.553 307.697 402.118C307.719 397.749 307.964 393.329 308.674 389.028C310.473 378.154 315.302 368.504 321.854 359.786C329.138 350.09 338.01 342.068 348.713 336.212C359.192 330.48 370.257 327.101 382.36 327.939C385.142 328.132 387.5 327.095 389.454 325.125C394.668 319.875 391.372 312.922 386.565 310.902C385.114 310.292 383.431 310.082 381.838 309.999C376.297 309.709 370.824 310.303 365.373 311.357C360.867 312.23 356.42 313.24 352.177 315.026C351.973 315.111 351.693 315.016 351.426 315.006C351.41 314.688 351.345 314.477 351.398 314.303C353.225 308.274 354.117 302.092 354.666 295.824C355.264 288.97 354.718 282.206 353.486 275.494C351.637 265.417 347.768 256.154 342.111 247.586C335.762 237.969 327.81 230.054 317.953 224.104C315.193 222.437 312.247 221.073 309.368 219.611C307.709 218.769 307.656 218.73 307.739 216.819C307.784 215.809 307.812 214.796 307.806 213.784C307.764 205.89 307.689 197.995 307.666 190.099C307.638 180.247 307.632 170.393 307.648 160.541C307.689 137.192 307.745 113.844 307.806 90.4949C307.808 89.517 307.932 88.5411 308.002 87.5004C309.137 87.5004 310.026 87.3729 310.865 87.5227C313.846 88.0552 316.832 88.5796 319.772 89.2923C327.252 91.1044 334.459 93.6798 341.366 97.1136C351.728 102.264 361.067 108.79 368.841 117.417C370.951 119.758 372.812 122.323 374.787 124.785L374.785 124.791Z" fill="white"/>
<path d="M364.719 206.224C364.234 205.677 363.742 205.06 363.188 204.503C356.389 197.702 348.893 191.794 340.62 186.884C338.767 185.785 336.929 184.653 335.025 183.646C332.727 182.432 330.356 181.719 327.661 182.385C321.328 183.948 318.73 191.915 323.114 196.71C324.005 197.686 325.101 198.566 326.267 199.182C335.442 204.035 343.823 209.955 351.082 217.41C358.18 224.699 363.706 233.014 367.273 242.567C370.469 251.129 374.882 258.918 381.205 265.587C386.603 271.281 392.898 275.715 399.868 279.234C408.186 283.433 416.981 286.104 426.248 287.013C430.458 287.426 434.723 287.567 438.952 287.456C442.701 287.357 446.675 284.648 447.494 280.127C448.229 276.075 445.993 271.993 441.987 270.368C440.963 269.953 439.763 269.91 438.636 269.835C435.348 269.617 432.052 269.536 428.769 269.278C421.088 268.681 413.812 266.549 406.978 263.042C395.726 257.272 388.02 248.382 383.943 236.361C382.217 231.275 381.211 226.098 381.207 220.706C381.201 213.181 383.198 206.199 386.668 199.589C389.553 194.092 393.444 189.384 398 185.203C398.943 184.339 399.918 183.495 400.764 182.539C404.647 178.147 403.49 171.774 398.367 168.921C395.087 167.095 392.007 167.573 389.084 169.648C385.322 172.316 382.091 175.57 379.172 179.121C373.013 186.609 368.513 194.985 365.834 204.323C365.686 204.837 365.478 205.335 365.274 205.829C365.231 205.93 365.071 205.983 364.729 206.226L364.719 206.224Z" fill="white"/>
<path d="M393.721 346.895C383.957 346.895 374.933 348.982 366.469 353.074C355.236 358.506 346.269 366.556 339.669 377.247C333.85 386.669 330.766 396.987 329.289 407.842C328.865 410.962 328.64 414.167 328.846 417.299C329.119 421.439 333.287 425.167 337.374 425.037C340.899 424.926 343.724 423.183 345.292 419.941C345.947 418.585 346.346 416.987 346.408 415.481C346.75 407.084 348.525 399.012 352.112 391.44C356.379 382.436 362.834 375.345 371.603 370.444C376.359 367.785 381.418 366.143 386.779 365.208C392.882 364.145 398.868 364.594 404.776 366.196C407.896 367.042 410.818 368.464 413.598 370.152C415.506 371.31 417.462 372.157 419.828 372.179C424.075 372.217 428.987 367.595 428.056 361.989C427.593 359.201 426.07 357.196 423.814 355.623C419.739 352.78 415.241 350.824 410.537 349.338C405.108 347.621 398.733 346.814 393.723 346.895H393.721Z" fill="white"/>
<path d="M273.991 148.716C273.991 173.008 273.991 197.302 273.989 221.594C273.989 222.809 273.902 224.026 273.948 225.237C274.106 229.353 271.308 233.164 266.814 234.419C258.361 236.782 251.275 241.412 245.021 247.44C236.902 255.263 231.429 264.668 228.647 275.573C226.935 282.284 226.522 289.152 227.046 296.064C227.765 305.564 230.597 314.428 235.115 322.778C238.316 328.692 242.357 333.983 247.063 338.775C253.912 345.75 259.676 353.525 264.257 362.168C269.426 371.925 272.955 382.217 273.57 393.296C273.977 400.629 273.938 407.991 273.96 415.342C274.009 432.348 273.971 449.353 273.971 466.358C273.971 475.334 273.985 484.307 273.975 493.283C273.975 495.008 273.675 495.378 271.994 495.35C266.272 495.251 260.558 495.477 254.826 494.829C250.343 494.323 245.865 493.805 241.446 492.957C235.894 491.89 230.447 490.365 225.112 488.468C215.536 485.064 206.583 480.45 198.275 474.597C188.883 467.978 180.709 460.112 174.026 450.732C173.712 450.292 173.385 449.863 173.065 449.43C170.857 446.433 170.868 446.373 167.264 445.763C158.364 444.255 150.014 441.131 141.904 437.268C140.508 436.604 139.074 436.016 137.684 435.342C137.155 435.087 136.686 434.702 136.213 434.348C134.94 433.398 133.934 432.028 132.107 431.981C131.709 431.971 131.146 431.597 130.96 431.236C130.072 429.525 128.368 428.764 126.997 427.612C124.886 425.84 122.857 423.974 120.745 422.206C119.992 421.576 119.1 421.115 118.268 420.58C117.673 420.198 116.983 420.009 117.18 418.938C117.262 418.487 116.54 417.812 116.075 417.347C112.664 413.935 109.879 410.044 107.405 405.934C102.458 397.713 98.982 388.934 97.3047 379.445C95.9653 371.868 95.7953 364.294 96.8394 356.685C97.0781 354.95 97.3007 353.203 97.6932 351.5C98.0129 350.107 97.7013 349.032 96.7726 347.981C93.1529 343.875 89.9763 339.441 87.1296 334.762C80.9504 324.61 76.7986 313.73 75.2184 301.914C75.0768 300.849 75.0667 299.759 75.0647 298.682C75.0505 293.351 75.1942 288.016 75.0222 282.689C74.8118 276.176 76.1188 269.944 78.0632 263.811C83.3683 247.079 93.0538 233.279 106.424 222.048C108.696 220.139 109.637 218.355 109.321 215.227C108.704 209.131 108.704 202.955 109.533 196.849C110.519 189.592 112.388 182.561 115.638 175.966C117.186 172.826 118.885 169.757 120.619 166.715C122.822 162.848 125.641 159.425 128.688 156.207C131.652 153.079 134.556 149.858 137.803 147.042C145.611 140.271 154.442 135.137 164.168 131.614C166.03 130.939 167.143 129.842 167.893 127.995C171.547 119.01 177.002 111.185 183.665 104.187C193.553 93.8006 205.239 85.9469 218.182 79.9012C225.707 76.3863 233.543 73.7299 241.632 71.8996C245.359 71.0553 249.205 70.7557 252.969 70.0531C259.196 68.8909 265.479 69.553 271.735 69.3586C273.663 69.2979 273.995 69.6988 273.995 71.5919C273.995 82.5231 273.971 93.4544 273.969 104.386C273.969 114.574 273.985 124.764 273.993 134.952C273.997 139.54 273.993 144.13 273.993 148.718C273.997 148.718 273.999 148.718 274.003 148.718L273.991 148.716ZM256.145 476.949C256.21 476.214 256.295 475.69 256.295 475.166C256.301 450.469 256.313 425.77 256.279 401.072C256.275 398.175 256.196 395.253 255.824 392.387C254.229 380.097 249.074 369.269 241.673 359.5C236.188 352.259 229.65 346.048 222.196 340.802C216.082 336.497 209.464 333.199 202.407 330.869C195.712 328.658 188.786 327.702 181.694 328.22C178.247 328.473 175.523 326.971 173.524 324.252C171.774 321.873 171.337 319.233 172.476 316.406C174.141 312.276 177.372 310.48 181.623 310.278C187.301 310.008 192.909 310.561 198.496 311.626C203.137 312.511 207.698 313.602 212.072 315.41C212.218 315.471 212.436 315.355 212.695 315.307C212.645 314.997 212.634 314.734 212.558 314.489C210.405 307.552 209.44 300.411 209.098 293.193C208.806 287.042 209.419 280.928 210.656 274.896C214.176 257.705 222.763 243.449 235.799 231.819C241.375 226.842 247.678 222.971 254.498 219.952C255.781 219.386 256.342 218.663 256.323 217.211C256.251 211.481 256.291 205.749 256.293 200.017C256.301 174.78 256.327 149.542 256.311 124.304C256.303 112.699 256.218 101.094 256.162 89.488C256.159 88.911 256.07 88.334 256.018 87.7043C255.415 87.7043 255.006 87.6456 254.62 87.7124C251.174 88.3056 247.696 88.7632 244.299 89.5629C235.208 91.699 226.579 95.0721 218.399 99.5973C207.469 105.643 197.915 113.29 190.487 123.434C190.036 124.049 189.654 124.715 189.051 125.651C190.348 125.651 191.214 125.689 192.074 125.643C193.957 125.54 195.841 125.254 197.719 125.295C201.152 125.369 204.594 125.497 208.007 125.843C211.617 126.21 215.249 126.643 218.781 127.439C223.036 128.396 227.216 129.704 231.39 130.988C233.632 131.676 235.86 132.448 237.768 133.94C241.215 136.639 242.334 140.826 240.511 144.559C238.539 148.601 234.591 150.465 230.334 149.35C229.622 149.164 228.924 148.919 228.228 148.672C221.553 146.309 214.765 144.387 207.702 143.64C196.517 142.456 185.49 143.367 174.728 146.653C166.615 149.129 159.139 152.952 152.314 158.028C142.91 165.021 135.733 173.796 131.118 184.591C125.716 197.229 125.544 210.258 128.429 223.484C128.559 224.075 128.813 224.638 128.959 225.225C129.327 226.703 129.188 227.047 127.933 227.936C126.614 228.871 125.287 229.796 123.968 230.732C117.159 235.567 111.124 241.232 106.084 247.889C98.7837 257.533 94.0492 268.276 92.5358 280.363C91.6233 287.652 91.8074 294.898 93.1226 302.12C94.553 309.974 97.5293 317.249 101.434 324.161C102.61 326.24 103.971 328.214 105.361 330.417C105.776 329.881 106.003 329.644 106.165 329.368C109.192 324.242 112.615 319.397 116.672 315.038C118.824 312.723 121.089 310.49 123.474 308.417C125.776 306.417 128.534 305.619 131.561 306.572C137.809 308.542 139.618 315.414 136.706 319.532C135.78 320.842 134.594 321.968 133.524 323.175C130.752 326.295 127.709 329.216 125.25 332.567C116.981 343.841 113.064 356.481 114.013 370.538C114.731 381.186 118.373 390.779 124.399 399.499C132.389 411.066 143.288 418.926 156.17 424.208C157.629 424.808 159.132 425.302 160.887 425.946C160.753 425.233 160.707 424.856 160.609 424.494C159.948 422.022 159.195 419.57 158.623 417.078C157.172 410.754 156.259 404.36 156.326 397.847C156.348 395.61 156.913 393.595 158.177 391.759C160.312 388.655 164.498 387.296 167.964 388.7C171.76 390.236 173.83 393.065 174.04 397.201C174.188 400.096 174.186 403.012 174.534 405.885C175.786 416.213 179.224 425.824 184.612 434.692C192.116 447.043 202.267 456.733 214.708 464.046C221.237 467.885 228.145 470.892 235.356 473.145C241.211 474.975 247.289 475.886 253.325 476.921C254.167 477.065 255.055 476.941 256.153 476.941L256.145 476.949Z" fill="white"/>
<path d="M198.801 206.44C202.915 202.799 206.714 199.266 210.696 195.952C216.41 191.196 222.729 187.315 229.25 183.775C232.03 182.267 234.988 181.69 237.932 183.32C241.094 185.071 243.123 187.754 243.075 191.449C243.026 195.039 241.08 197.726 237.926 199.355C230.769 203.057 224.129 207.519 218.057 212.795C208.43 221.159 201.033 231.143 196.563 243.18C193.504 251.42 189.225 258.919 183.218 265.396C177.741 271.302 171.301 275.878 164.146 279.494C155.83 283.7 147.037 286.372 137.773 287.289C133.562 287.706 129.303 287.789 125.068 287.757C121.206 287.727 117.683 284.805 116.698 281.238C115.678 277.545 117.137 273.592 120.322 271.493C121.576 270.665 122.924 270.086 124.478 270.13C125.218 270.15 125.961 270.13 126.701 270.126C137.845 270.08 148.557 268.016 158.392 262.627C166.685 258.083 173.14 251.59 177.374 243.034C181.34 235.02 183.357 226.559 182.661 217.604C182.176 211.356 180.308 205.458 177.338 199.916C174.406 194.446 170.574 189.702 166.01 185.527C165.065 184.662 164.094 183.816 163.242 182.864C159.256 178.408 160.579 171.727 165.908 169.026C169.101 167.408 172.063 167.944 174.845 169.906C178.615 172.565 181.842 175.823 184.77 179.368C190.989 186.9 195.477 195.359 198.202 204.747C198.364 205.306 198.591 205.847 198.803 206.44H198.801Z" fill="white"/>
<path d="M170.404 346.939C179.954 347.165 189.039 349.273 197.563 353.399C208.865 358.87 217.848 367.005 224.446 377.772C230.156 387.092 233.191 397.29 234.658 408.007C235.085 411.127 235.332 414.332 235.129 417.462C234.858 421.655 230.885 425.324 226.708 425.318C223.261 425.312 220.448 423.621 218.826 420.513C218.101 419.122 217.63 417.456 217.563 415.891C217.223 407.989 215.643 400.368 212.473 393.134C208.258 383.518 201.65 375.987 192.464 370.789C187.667 368.074 182.548 366.365 177.099 365.501C167.63 363.996 158.752 365.485 150.467 370.376C148.613 371.472 146.762 372.516 144.458 372.447C140.666 372.334 138.062 370.467 136.579 367.125C135.078 363.739 135.5 360.38 138.127 357.76C139.859 356.033 142.026 354.651 144.19 353.466C148.82 350.931 153.785 349.154 158.977 348.236C162.742 347.57 166.588 347.356 170.398 346.939H170.404Z" fill="white"/>
<defs>
<radialGradient id="paint0_radial_131_2" cx="0" cy="0" r="1" gradientUnits="userSpaceOnUse" gradientTransform="translate(32.4473 282.148) rotate(4.18488) scale(231.981 231.98)">
<stop stop-color="#4200FF"/>
<stop offset="1" stop-color="#4200FF" stop-opacity="0"/>
</radialGradient>
<radialGradient id="paint1_radial_131_2" cx="0" cy="0" r="1" gradientUnits="userSpaceOnUse" gradientTransform="translate(292.025 36.6792) rotate(73.3514) scale(457.937 457.94)">
<stop stop-color="#5200FF"/>
<stop offset="0.382844" stop-color="#0085FF"/>
<stop offset="1" stop-color="#0085FF" stop-opacity="0"/>
</radialGradient>
<radialGradient id="paint2_radial_131_2" cx="0" cy="0" r="1" gradientUnits="userSpaceOnUse" gradientTransform="translate(282.15 481.062) rotate(-86.9267) scale(210.503 210.505)">
<stop offset="0.355309" stop-color="#0029FF"/>
<stop offset="1" stop-color="#0029FF" stop-opacity="0"/>
</radialGradient>
<radialGradient id="paint3_radial_131_2" cx="0" cy="0" r="1" gradientUnits="userSpaceOnUse" gradientTransform="translate(379.492 402.061) rotate(-123.011) scale(264.125 264.126)">
<stop stop-color="#4200FF"/>
<stop offset="1" stop-color="#4200FF" stop-opacity="0"/>
</radialGradient>
</defs>
</svg>
